<?xml version="1.0" encoding="utf-8"?>
<svg version="1.1" xmlns:xlink="http://www.w3.org/1999/xlink" width="154px" height="183px" xmlns="http://www.w3.org/2000/svg">
  <g transform="matrix(1 0 0 1 -996 -401 )">
    <path d="M 152.97734375 132.3056640625  C 153.659114583333 138.302408854167  154 144.676432291667  154 151.427734375  C 154 160.085286458333  151.493489583333 167.51171875  146.48046875 173.70703125  C 141.467447916667 179.90234375  135.431770833333 183  128.3734375 183  L 25.6265625 183  C 18.5682291666667 183  12.5325520833333 179.90234375  7.51953125 173.70703125  C 2.50651041666667 167.51171875  0 160.085286458333  0 151.427734375  C 0 144.676432291667  0.340885416666667 138.302408854167  1.02265625 132.3056640625  C 1.70442708333333 126.308919270833  2.96770833333333 120.2724609375  4.8125 114.1962890625  C 6.65729166666667 108.1201171875  9.00338541666667 102.917643229167  11.85078125 98.5888671875  C 14.6981770833333 94.2600911458333  18.46796875 90.7255859375  23.16015625 87.9853515625  C 27.85234375 85.2451171875  33.2463541666667 83.875  39.3421875 83.875  C 49.8494791666667 94.0416666666667  62.4020833333333 99.125  77 99.125  C 91.5979166666667 99.125  104.150520833333 94.0416666666667  114.6578125 83.875  C 120.753645833333 83.875  126.14765625 85.2451171875  130.83984375 87.9853515625  C 135.53203125 90.7255859375  139.301822916667 94.2600911458333  142.14921875 98.5888671875  C 144.996614583333 102.917643229167  147.342708333333 108.1201171875  149.1875 114.1962890625  C 151.032291666667 120.2724609375  152.295572916667 126.308919270833  152.97734375 132.3056640625  Z M 109.66484375 13.4033203125  C 118.68828125 22.3388671875  123.2 33.12109375  123.2 45.75  C 123.2 58.37890625  118.68828125 69.1611328125  109.66484375 78.0966796875  C 100.64140625 87.0322265625  89.753125 91.5  77 91.5  C 64.246875 91.5  53.35859375 87.0322265625  44.33515625 78.0966796875  C 35.31171875 69.1611328125  30.8 58.37890625  30.8 45.75  C 30.8 33.12109375  35.31171875 22.3388671875  44.33515625 13.4033203125  C 53.35859375 4.4677734375  64.246875 0  77 0  C 89.753125 0  100.64140625 4.4677734375  109.66484375 13.4033203125  Z " fill-rule="nonzero" fill="#000000" stroke="none" transform="matrix(1 0 0 1 996 401 )" />
  </g>
</svg>